<svg width="24" height="24" viewBox="0 0 24 24" fill="none" xmlns="http://www.w3.org/2000/svg">
<path d="M19 3.99805H18V1.99805H16V3.99805H8V1.99805H6V3.99805H5C4.46957 3.99805 3.96086 4.20876 3.58579 4.58383C3.21071 4.95891 3 5.46761 3 5.99805V19.998C3 20.5285 3.21071 21.0372 3.58579 21.4123C3.96086 21.7873 4.46957 21.998 5 21.998H19C19.5304 21.998 20.0391 21.7873 20.4142 21.4123C20.7893 21.0372 21 20.5285 21 19.998V5.99805C21 5.46761 20.7893 4.95891 20.4142 4.58383C20.0391 4.20876 19.5304 3.99805 19 3.99805V3.99805ZM19 19.998H5V9.99805H19V19.998ZM5 7.99805V5.99805H19V7.99805H5ZM10.56 18.458L16.5 12.528L15.43 11.468L10.56 16.338L8.45 14.228L7.39 15.288L10.56 18.458Z" fill="white" fill-opacity="0.54"/>
</svg>
