<svg width="24" height="24" viewBox="0 0 24 24" fill="none"
  xmlns="http://www.w3.org/2000/svg">
  <path d="M4.6087 5.57143V3H6.34783V5.57143H8.95652V7.28571H6.34783V9.85714H4.6087V7.28571H2V5.57143H4.6087ZM7.21739 10.7143V8.14286H9.82609V5.57143H15.913L17.5043 7.28571H20.2609C21.2174 7.28571 22 8.05714 22 9V19.2857C22 20.2286 21.2174 21 20.2609 21H6.34783C5.3913 21 4.6087 20.2286 4.6087 19.2857V10.7143H7.21739ZM13.3043 18.4286C15.7043 18.4286 17.6522 16.5086 17.6522 14.1429C17.6522 11.7771 15.7043 9.85714 13.3043 9.85714C10.9043 9.85714 8.95652 11.7771 8.95652 14.1429C8.95652 16.5086 10.9043 18.4286 13.3043 18.4286ZM10.5217 14.1429C10.5217 15.66 11.7652 16.8857 13.3043 16.8857C14.8435 16.8857 16.087 15.66 16.087 14.1429C16.087 12.6257 14.8435 11.4 13.3043 11.4C11.7652 11.4 10.5217 12.6257 10.5217 14.1429Z" fill="currentColor"/>
</svg>
